# xmcd CD database file
#
# Track frame offsets:
#	150
#	35659
#	62524
#	87660
#	102720
#	122740
#	157874
#	181211
#	197756
#	236321
#	259300
#	272814
#
# Disc length: 3802 seconds
#
# Revision: 0
# Processed by: cddbd v1.5.2PL0 Copyright (c) Steve Scherf et al.
# Submitted via: CDex 1.51
#
DISCID=a70ed80c
DTITLE=Various Artist - The Best of Newport '57
DYEAR=2007
DGENRE=Jazz
TTITLE0=George Lewis Band - Bourbon Street Parade
TTITLE1=Bobby Henderson - Blues for Louis
TTITLE2=Jack Teagarden with the Red Allen Band - Basin Street Blus
TTITLE3=The Red Allen Band fest. Kid Ory - Muskrat Ramble
TTITLE4=Ella Fitzgerald - Airmail Special
TTITLE5=Gigi Rice-Donald - Byrd Jazz Laboratory - Love for Sale
TTITLE6=Toshiko Akiyoshi Trio - Between Me and Myself 
TTITLE7=Mat Mathews Quartet - I Never Knew
TTITLE8=Ruby Braff Octet - It Don't Mean a Thing
TTITLE9=Leon Sash Quartet - Blue Lou
TTITLE10=Carmen McRea - Love is Here to Stay
TTITLE11=Coleman Hawkins et al. - Mooglow
EXTD=YEAR: 2007
EXTT0=
EXTT1=
EXTT2=
EXTT3=
EXTT4=
EXTT5=
EXTT6=
EXTT7=
EXTT8=
EXTT9=
EXTT10=
EXTT11=
PLAYORDER=
